<svg width="25" height="26" viewBox="0 0 25 26" fill="none" xmlns="http://www.w3.org/2000/svg">
<g id="box-open-svgrepo-com 1">
<path id="Vector" d="M13.05 13.0819C13.05 12.6677 12.7142 12.3319 12.3 12.3319C11.8858 12.3319 11.55 12.6677 11.55 13.0819H13.05ZM12.3 19.9999H11.55C11.55 20.2489 11.6736 20.4817 11.8799 20.6212C12.0862 20.7607 12.3483 20.7887 12.5794 20.6959L12.3 19.9999ZM18.044 17.6939L18.3234 18.3899C18.6077 18.2758 18.794 18.0002 18.794 17.6939H18.044ZM18.794 12.8999C18.794 12.4857 18.4582 12.1499 18.044 12.1499C17.6298 12.1499 17.294 12.4857 17.294 12.8999H18.794ZM12.7554 12.486C12.4263 12.2345 11.9556 12.2974 11.7041 12.6265C11.4526 12.9556 11.5155 13.4263 11.8446 13.6778L12.7554 12.486ZM14.348 14.6469L13.8926 15.2428C14.1156 15.4132 14.415 15.4449 14.6687 15.3249L14.348 14.6469ZM18.3617 13.5779C18.7361 13.4007 18.8961 12.9536 18.719 12.5792C18.5418 12.2048 18.0947 12.0448 17.7203 12.2219L18.3617 13.5779ZM12.0206 12.3859C11.6362 12.5402 11.4497 12.9769 11.604 13.3613C11.7583 13.7457 12.195 13.9322 12.5794 13.7779L12.0206 12.3859ZM18.3234 11.4719C18.7078 11.3176 18.8943 10.8809 18.74 10.4965C18.5857 10.1121 18.149 9.92559 17.7646 10.0799L18.3234 11.4719ZM17.7647 11.4719C18.1491 11.6262 18.5858 11.4396 18.74 11.0552C18.8943 10.6708 18.7077 10.2341 18.3233 10.0799L17.7647 11.4719ZM12.5793 7.77487C12.1949 7.62061 11.7582 7.80719 11.604 8.1916C11.4497 8.57602 11.6363 9.01271 12.0207 9.16697L12.5793 7.77487ZM18.4115 10.1231C18.0505 9.92016 17.5932 10.0483 17.3902 10.4094C17.1872 10.7705 17.3154 11.2277 17.6765 11.4307L18.4115 10.1231ZM20.095 11.9299L20.4153 12.6081C20.669 12.4883 20.8346 12.2369 20.8445 11.9565C20.8545 11.6761 20.7071 11.4136 20.4625 11.2761L20.095 11.9299ZM17.7203 12.2219C17.3458 12.3988 17.1859 12.8456 17.3628 13.2202C17.5397 13.5947 17.9871 13.7548 18.3617 13.5779L17.7203 12.2219ZM17.4849 10.2726C17.207 10.5798 17.2306 11.054 17.5377 11.332C17.8448 11.6099 18.3191 11.5863 18.5971 11.2792L17.4849 10.2726ZM20.5 8.05892L21.0561 8.56219C21.2259 8.37451 21.2897 8.1138 21.2255 7.86893C21.1614 7.62405 20.9781 7.42804 20.738 7.3477L20.5 8.05892ZM14.348 5.99992L14.586 5.2887C14.2926 5.19048 13.9689 5.2826 13.7711 5.52063L14.348 5.99992ZM11.7181 7.99163C11.4534 8.31023 11.4971 8.78309 11.8157 9.04779C12.1343 9.3125 12.6072 9.26881 12.8719 8.95021L11.7181 7.99163ZM6.27169 10.0799C5.88728 10.2341 5.7007 10.6708 5.85496 11.0552C6.00922 11.4396 6.44591 11.6262 6.83033 11.4719L6.27169 10.0799ZM12.5743 9.16697C12.9587 9.01271 13.1453 8.57602 12.991 8.1916C12.8368 7.80719 12.4001 7.62061 12.0157 7.77487L12.5743 9.16697ZM6.91854 11.4297C7.27961 11.2267 7.40777 10.7695 7.20479 10.4084C7.0018 10.0473 6.54455 9.91916 6.18348 10.1221L6.91854 11.4297ZM4.50001 11.9289L4.13248 11.2751C3.88803 11.4125 3.74066 11.6749 3.75047 11.9551C3.76028 12.2354 3.92562 12.4868 4.17909 12.6068L4.50001 11.9289ZM6.23009 13.5778C6.60446 13.755 7.05164 13.5952 7.22888 13.2208C7.40612 12.8464 7.24631 12.3993 6.87193 12.222L6.23009 13.5778ZM6.83043 10.0799C6.44604 9.92559 6.00932 10.1121 5.855 10.4965C5.70068 10.8809 5.8872 11.3176 6.27159 11.4719L6.83043 10.0799ZM12.0156 13.7779C12.4 13.9322 12.8367 13.7457 12.991 13.3613C13.1453 12.9769 12.9588 12.5402 12.5744 12.3859L12.0156 13.7779ZM5.99071 11.2745C6.26605 11.5839 6.74012 11.6115 7.04957 11.3362C7.35902 11.0609 7.38666 10.5868 7.11131 10.2774L5.99071 11.2745ZM4.50001 8.47092L4.20363 7.78197C3.98227 7.87719 3.82015 8.07297 3.76787 8.3082C3.71559 8.54343 3.77952 8.78946 3.93971 8.96948L4.50001 8.47092ZM10.244 5.99992L10.8211 5.52091C10.6087 5.265 10.2531 5.17954 9.94763 5.31097L10.244 5.99992ZM11.7179 8.94993C11.9824 9.26866 12.4553 9.31257 12.774 9.04802C13.0927 8.78347 13.1367 8.31063 12.8721 7.99191L11.7179 8.94993ZM13.045 13.0829C13.045 12.6687 12.7092 12.3329 12.295 12.3329C11.8808 12.3329 11.545 12.6687 11.545 13.0829H13.045ZM12.295 19.9999L12.0156 20.6959C12.2467 20.7887 12.5088 20.7607 12.7151 20.6212C12.9214 20.4817 13.045 20.2489 13.045 19.9999H12.295ZM6.55101 17.6939H5.80101C5.80101 18.0002 5.98731 18.2758 6.27159 18.3899L6.55101 17.6939ZM7.30101 12.8999C7.30101 12.4857 6.96522 12.1499 6.55101 12.1499C6.1368 12.1499 5.80101 12.4857 5.80101 12.8999H7.30101ZM12.75 13.6781C13.0793 13.4269 13.1425 12.9562 12.8912 12.6269C12.64 12.2976 12.1693 12.2344 11.84 12.4857L12.75 13.6781ZM10.244 14.6469L9.92329 15.3249C10.1768 15.4448 10.476 15.4133 10.699 15.2431L10.244 14.6469ZM6.87193 12.222C6.4975 12.0449 6.05017 12.2048 5.87304 12.5792C5.69591 12.9536 5.85566 13.4006 6.23009 13.5778L6.87193 12.222ZM11.55 13.0819V19.9999H13.05V13.0819H11.55ZM12.5794 20.6959L18.3234 18.3899L17.7646 16.9979L12.0206 19.3039L12.5794 20.6959ZM18.794 17.6939V12.8999H17.294V17.6939H18.794ZM11.8446 13.6778L13.8926 15.2428L14.8034 14.051L12.7554 12.486L11.8446 13.6778ZM14.6687 15.3249L18.3617 13.5779L17.7203 12.2219L14.0273 13.9689L14.6687 15.3249ZM12.5794 13.7779L18.3234 11.4719L17.7646 10.0799L12.0206 12.3859L12.5794 13.7779ZM18.3233 10.0799L12.5793 7.77487L12.0207 9.16697L17.7647 11.4719L18.3233 10.0799ZM17.6765 11.4307L19.7275 12.5837L20.4625 11.2761L18.4115 10.1231L17.6765 11.4307ZM19.7747 11.2517L17.7203 12.2219L18.3617 13.5779L20.4153 12.6081L19.7747 11.2517ZM18.5971 11.2792L21.0561 8.56219L19.9439 7.55565L17.4849 10.2726L18.5971 11.2792ZM20.738 7.3477L14.586 5.2887L14.11 6.71114L20.262 8.77014L20.738 7.3477ZM13.7711 5.52063L11.7181 7.99163L12.8719 8.95021L14.9249 6.47921L13.7711 5.52063ZM6.83033 11.4719L12.5743 9.16697L12.0157 7.77487L6.27169 10.0799L6.83033 11.4719ZM6.18348 10.1221L4.13248 11.2751L4.86754 12.5827L6.91854 11.4297L6.18348 10.1221ZM4.17909 12.6068L6.23009 13.5778L6.87193 12.222L4.82093 11.251L4.17909 12.6068ZM6.27159 11.4719L12.0156 13.7779L12.5744 12.3859L6.83043 10.0799L6.27159 11.4719ZM7.11131 10.2774L5.06031 7.97236L3.93971 8.96948L5.99071 11.2745L7.11131 10.2774ZM4.79639 9.15987L10.5404 6.68887L9.94763 5.31097L4.20363 7.78197L4.79639 9.15987ZM9.66691 6.47893L11.7179 8.94993L12.8721 7.99191L10.8211 5.52091L9.66691 6.47893ZM11.545 13.0829V19.9999H13.045V13.0829H11.545ZM12.5744 19.3039L6.83043 16.9979L6.27159 18.3899L12.0156 20.6959L12.5744 19.3039ZM7.30101 17.6939V12.8999H5.80101V17.6939H7.30101ZM11.84 12.4857L9.78905 14.0507L10.699 15.2431L12.75 13.6781L11.84 12.4857ZM10.5647 13.9689L6.87193 12.222L6.23009 13.5778L9.92329 15.3249L10.5647 13.9689Z" fill="black" fill-opacity="0.8"/>
</g>
</svg>
